<mxfile host="app.diagrams.net" modified="2024-09-19T16:19:52.322Z" agent="Mozilla/5.0 (Windows NT 10.0; Win64; x64) AppleWebKit/537.36 (KHTML, like Gecko) Chrome/129.0.0.0 Safari/537.36" version="24.4.9" etag="RFwI81OlaxzRcwgIa9w1" type="github">
  <diagram name="Page-1" id="Ku3SAnUBkAwMOGjgucE6">
    <mxGraphModel>
      <root>
        <mxCell id="0" />
        <mxCell id="1" parent="0" />
      </root>
    </mxGraphModel>
  </diagram>
</mxfile>
